<svg id="Layer_1" enable-background="new 0 0 510 510" height="512" viewBox="0 0 510 510" width="512" xmlns="http://www.w3.org/2000/svg"><g><g><path d="m75 157.5h75v30h-75z"/><path d="m75 217.5h75v30h-75z"/><path d="m180 157.5h30v30h-30z"/><path d="m180 217.5h30v30h-30z"/><path d="m480 22.5v165h-62.58c-6.192-17.458-22.865-30-42.42-30h-23.787l-30-30h-46.671l-45-30h-229.542v210h30v180h180v-30h-30v-63.289l60-14.999v-78.684l34.542-23.028h46.671l30-30h23.787c19.555 0 36.228-12.541 42.42-30h62.58v165h30v-360zm-450 105h190.458l34.542 23.028v103.944l-34.542 23.028c-10.707 0-179.689 0-190.458 0zm120 330h-90v-30h30v-30h-30v-30h30v-30h-30v-30h75v48.541l15 30zm23.035-92.471-8.035-16.07v-41.459h45v48.288zm135.752-117.529h-23.787v-90h23.787l21.213 21.213v47.573zm66.213-30h-15v-30h15c8.272 0 15 6.729 15 15s-6.728 15-15 15z"/><path d="m405 91.287h29.999v42.426h-29.999z" transform="matrix(.707 -.707 .707 .707 43.466 329.935)"/><path d="m398.787 277.5h42.426v29.999h-42.426z" transform="matrix(.707 -.707 .707 .707 -83.814 382.656)"/></g></g></svg>