<svg id="Layer_1" enable-background="new 0 0 510 510" height="512" viewBox="0 0 510 510" width="512" xmlns="http://www.w3.org/2000/svg"><g><g><path d="m480 30h-90v-30h-270v30h-90v90h90v30h61.509c5.98 29.344 29.148 52.511 58.491 58.49v49.799l-48.638 12.159 7.275 29.104 41.363-10.341v29.078l-48.638 12.159 7.275 29.104 41.363-10.341v29.078l-48.638 12.159 7.275 29.104 41.363-10.341v29.078l-48.638 12.159 7.275 29.104 41.363-10.341v40.789h30v-48.289l48.638-12.159-7.275-29.104-41.363 10.341v-29.078l48.638-12.159-7.275-29.104-41.363 10.341v-29.078l48.638-12.159-7.275-29.104-41.363 10.341v-29.078l48.638-12.159-7.275-29.104-41.363 10.341v-42.299c29.344-5.98 52.511-29.146 58.491-58.49h61.509v-30h90zm-420 60v-30h60v30zm195 90c-19.557 0-36.239-12.539-42.43-30h84.859c-6.19 17.461-22.872 30-42.429 30zm-105-60v-90h210v90c-10.385 0-199.608 0-210 0zm300-30h-60v-30h60z"/><path d="m180 60h150v30h-150z"/></g></g></svg>