<svg id="Layer_1" enable-background="new 0 0 510 510" height="512" viewBox="0 0 510 510" width="512" xmlns="http://www.w3.org/2000/svg"><g><g><path d="m390 15v30h-255c-24.813 0-45 20.187-45 45s20.187 45 45 45h255v30h24.189l-30 90h91.623l34.188-102.565v-137.435zm-255 90c-8.271 0-15-6.729-15-15s6.729-15 15-15h255v30zm345 42.565-25.811 77.435h-28.377l30-90h-35.812v-90h60z"/><path d="m210 405h45v30h-45z"/><path d="m345 405h30v30h-30z"/><path d="m420 315h30v-30h-90v30h30v30h-120v-30h30v-30h-90v30h30v30h-240v150h510v-150h-90zm60 90h-75v30h75v30h-450v-30h150v-30h-150v-30h450z"/></g></g></svg>