<svg id="Layer_1" enable-background="new 0 0 510.017 510.017" height="512" viewBox="0 0 510.017 510.017" width="512" xmlns="http://www.w3.org/2000/svg"><g><g><path d="m510.009 240.017h-192.293l15-90h-62.707v-35.619c28.547.969 50.197-25.266 39.405-57.182 12.357-36.544-17.899-66.754-54.405-54.404-36.539-12.362-66.75 17.898-54.405 54.404-10.707 31.663 10.516 58.079 39.405 57.172v35.629h-62.707l15 90h-192.293v90h30v180h30v-60h39.27l30-60h251.459l30 60h39.27v60h30v-180h30v-90zm-279.299-158.502c-3.703-3.703-3.852-10.559-.388-17.893l3.025-6.406-3.025-6.406c-3.464-7.332-3.315-14.189.388-17.893 3.704-3.701 10.559-3.852 17.893-.387l6.406 3.025 6.406-3.025c7.336-3.467 14.189-3.316 17.893.387 3.703 3.703 3.852 10.561.388 17.893l-3.025 6.406 3.025 6.406c3.464 7.334 3.316 14.189-.388 17.893-3.702 3.703-10.559 3.854-17.893.389l-6.406-3.026-6.406 3.026c-7.331 3.465-14.188 3.316-17.893-.389zm-17.994 98.502h84.586l-10 60h-64.586zm237.293 240h-20.729l-30-60h-288.542l-30 60h-20.729v-90h390zm30-120h-450v-30h450z"/></g></g></svg>