<svg id="Layer_1" enable-background="new 0 0 512.362 512.362" height="512" viewBox="0 0 512.362 512.362" width="512" xmlns="http://www.w3.org/2000/svg"><g><g><path d="m437.861 97.642 74.502-73.6-21.084-21.341-74.502 73.6c-16.397-7.972-37.129-5.491-51.281 8.49l-10.67 10.541-21.085-21.342-58.835 58.123c-43.19-8.785-88.98 3.562-122.056 36.236-49.349 48.752-53.154 126.442-11.107 179.656l-38.86 38.389-42.427-.26-47.103 46.536c-17.651 17.438-17.824 45.984-.389 63.637l.001.002c17.356 17.568 45.9 17.908 63.639.387l47.104-46.532.259-42.427 38.854-38.383c48.812 39.64 119.167 40.125 168.529 1.027l23.46 23.747c-2.9 5.966-4.455 12.552-4.497 19.38-.151 24.871 19.854 45.124 44.726 45.273.095.002.188.002.282.002 11.915 0 23.134-4.607 31.617-12.988 17.652-17.438 17.826-45.986.388-63.639-13.742-13.909-34.383-16.957-51.154-9.092l-23.479-23.768c25.986-32.002 34.848-72.633 27.632-110.475l58.835-58.123-21.083-21.342 10.671-10.541c14.23-14.058 16.834-34.777 9.113-51.173zm-344.078 339.91-38.263 37.801c-5.883 5.812-15.397 5.758-21.213-.129-5.814-5.885-5.754-15.4.129-21.213l38.264-37.8 21.213.129zm312.201-34.312c5.812 5.885 5.755 15.4-.13 21.214-2.828 2.794-6.566 4.329-10.538 4.329-8.305 0-15.054-6.741-15.003-15.092.05-8.254 6.743-14.908 14.998-14.908 4.045 0 7.835 1.586 10.673 4.457zm-74.539-75.451-43.234-43.764c8.069-16.676 5.273-37.351-8.47-51.262-17.53-17.745-46.013-17.797-63.639-.389-17.651 17.438-17.825 45.986-.388 63.639 13.594 13.76 34.176 17.058 51.155 9.096l43.233 43.764c-40.866 30.305-99.533 27.306-137.072-10.691-40.689-41.188-40.284-107.801.904-148.49 20.431-20.184 47.111-30.254 73.786-30.254 57.843 0 105.36 46.854 105.005 105.59-.139 22.981-7.611 44.788-21.28 62.761zm-94.388-52.858c-5.814-5.885-5.755-15.402.129-21.215 5.874-5.801 15.394-5.762 21.213.131 5.812 5.883 5.755 15.399-.129 21.213-5.885 5.813-15.403 5.754-21.213-.129zm132.891-68.028c-13.01-27.604-35.478-50.521-63.251-64.026l26.786-26.461 63.25 64.025zm5.96-90.23 10.671-10.541c5.908-5.839 15.4-5.759 21.213.129 5.826 5.896 5.77 15.385-.129 21.213l-10.671 10.541c-5.395-5.462-15.69-15.883-21.084-21.342z"/></g></g></svg>