<?xml version="1.0" encoding="utf-8"?>
<!-- Generator: Adobe Illustrator 25.0.0, SVG Export Plug-In . SVG Version: 6.00 Build 0)  -->
<svg version="1.1" id="Layer_1" xmlns="http://www.w3.org/2000/svg" xmlns:xlink="http://www.w3.org/1999/xlink" x="0px" y="0px"
	 viewBox="0 0 231.6 231.6" style="enable-background:new 0 0 231.6 231.6;" xml:space="preserve">
<style type="text/css">
	.st0{display:none;}
	.st1{display:inline;}
</style>
<g id="Layer_1_1_" class="st0">
	<g id="XMLID_449_" class="st1">
		<path id="XMLID_450_" d="M2.5,211.8h42.1c1.1,0,2.1-0.7,2.4-1.8l12.3-44.2h47.6l13.3,44.3c0.3,1.1,1.3,1.8,2.4,1.8h43.7l0,0
			c1.4,0,2.5-1.1,2.5-2.5c0-0.4-0.1-0.7-0.2-1L113,29c-0.3-1-1.3-1.8-2.4-1.8H57.4c-1.1,0-2.1,0.7-2.4,1.8L0.1,208.5
			c-0.2,0.8-0.1,1.6,0.4,2.2C1,211.4,1.7,211.8,2.5,211.8z M99.6,130.3h-33l9.8-34.9c1.8-6.3,3.4-13.7,5.1-20.9
			c0.4-1.7,0.7-3.3,1.1-4.9c2.1,8.6,4.5,17.9,6.9,25.8L99.6,130.3z"/>
		<path id="XMLID_453_" d="M187.3,76.6c-1.4,0-2.5,1.1-2.5,2.5v130.2c0,1.4,1.1,2.5,2.5,2.5h40.5c1.4,0,2.5-1.1,2.5-2.5V79.1
			c0-1.4-1.1-2.5-2.5-2.5H187.3z"/>
		<path id="XMLID_454_" d="M207.3,65.6c14.1,0,24.3-9.6,24.3-22.8c-0.3-13.5-10.2-22.9-24.1-22.9c-7.1,0-13.4,2.4-17.7,6.9
			c-4.1,4.2-6.2,9.9-6.1,16.1c-0.1,6,2,11.7,6.1,15.8C194.2,63.1,200.4,65.6,207.3,65.6z"/>
	</g>
</g>
<g id="Layer_2_1_">
	<g>
		<path d="M228.1,55.1H65.5v7h159.1v161.2H54.4c-3.7,3.3-8.1,5.7-13,7h186.8c1.9,0,3.5-1.6,3.5-3.5V58.6
			C231.6,56.7,230,55.1,228.1,55.1z"/>
		<path d="M54.4,223.4c6.8-6,11.1-14.8,11.1-24.6V62.2v-7V32.8c0-18.1-14.7-32.7-32.7-32.7C14.7,0.1,0,14.7,0,32.8v166
			c0,18.1,14.7,32.7,32.7,32.7c3,0,5.8-0.4,8.6-1.1C46.2,229.1,50.7,226.6,54.4,223.4z M32.7,231.2c-17.6,0-32-14.3-32-32
			c0-7.1,2.3-13.7,6.3-19V32.8C7,18.6,18.6,7.1,32.7,7.1c14.2,0,25.7,11.5,25.7,25.7v147.5c3.9,5.3,6.3,11.9,6.3,19
			C64.7,216.9,50.4,231.2,32.7,231.2z"/>
		<path d="M64.7,199.3c0-7.1-2.3-13.7-6.3-19c-5.8-7.9-15.2-13-25.7-13s-19.9,5.1-25.7,13c-3.9,5.3-6.3,11.9-6.3,19
			c0,17.6,14.3,32,32,32C50.4,231.2,64.7,216.9,64.7,199.3z M32.7,224.2C19,224.2,7.8,213,7.8,199.3s11.2-24.9,24.9-24.9
			c13.8,0,24.9,11.2,24.9,24.9C57.7,213,46.5,224.2,32.7,224.2z"/>
		<path d="M32.7,183.7c-9.3,0-16.9,7.6-16.9,16.9c0,9.3,7.6,16.9,16.9,16.9s16.9-7.6,16.9-16.9S42.1,183.7,32.7,183.7z M32.7,210.4
			c-5.4,0-9.9-4.4-9.9-9.9c0-5.4,4.4-9.9,9.9-9.9c5.4,0,9.9,4.4,9.9,9.9S38.2,210.4,32.7,210.4z"/>
		<path d="M203.4,117.4v3.7c0,1.9,1.6,3.5,3.5,3.5c2,0,3.5-1.6,3.5-3.5V76.7c0-1.9-1.6-3.5-3.5-3.5h-41.8c-1.9,0-3.5,1.6-3.5,3.5
			s1.6,3.5,3.5,3.5h3.3h35V117.4z"/>
		<path d="M168.9,204.4h-3.7c-1.9,0-3.5,1.6-3.5,3.5s1.6,3.5,3.5,3.5H207c2,0,3.5-1.6,3.5-3.5v-39.6c0-1.9-1.6-3.5-3.5-3.5
			s-3.5,1.6-3.5,3.5v3.3v32.7h-34.6V204.4z"/>
		<path d="M141.6,190.2v-3.5c-1.7,0.3-3,1.7-3,3.5c0,1.9,1.6,3.5,3.5,3.5h3C143.1,193.7,141.6,192.1,141.6,190.2z"/>
		<path d="M113.1,186.7h-9.7c-1.9,0-3.5,1.6-3.5,3.5s1.6,3.5,3.5,3.5h9.7c1.9,0,3.5-1.6,3.5-3.5C116.6,188.2,115,186.7,113.1,186.7z
			"/>
		<path d="M132.4,186.7h-9.7c-1.9,0-3.5,1.6-3.5,3.5s1.6,3.5,3.5,3.5h9.7c1.9,0,3.5-1.6,3.5-3.5
			C135.9,188.2,134.4,186.7,132.4,186.7z"/>
		<path d="M88.5,193.7h5.3c1.9,0,3.5-1.6,3.5-3.5s-1.6-3.5-3.5-3.5H92v-1.8c0-1.9-1.6-3.5-3.5-3.5S85,183,85,184.9v5.3
			C85,192.1,86.5,193.7,88.5,193.7z"/>
		<path d="M92,138.1v-9.4c0-1.9-1.6-3.5-3.5-3.5s-3.5,1.6-3.5,3.5v9.4c0,1.9,1.6,3.5,3.5,3.5S92,140,92,138.1z"/>
		<path d="M92,119.3V110c0-1.9-1.6-3.5-3.5-3.5S85,108.1,85,110v9.4c0,1.9,1.6,3.5,3.5,3.5S92,121.3,92,119.3z"/>
		<path d="M92,156.8v-9.4c0-1.9-1.6-3.5-3.5-3.5s-3.5,1.6-3.5,3.5v9.4c0,1.9,1.6,3.5,3.5,3.5S92,158.8,92,156.8z"/>
		<path d="M92,175.5v-9.4c0-1.9-1.6-3.5-3.5-3.5s-3.5,1.6-3.5,3.5v9.4c0,1.9,1.6,3.5,3.5,3.5C90.4,179.1,92,177.5,92,175.5z"/>
		<path d="M92,100.6v-1.8h1.8c1.9,0,3.5-1.6,3.5-3.5s-1.6-3.5-3.5-3.5h-5.3c-1.9,0-3.5,1.6-3.5,3.5v5.3c0,1.9,1.6,3.5,3.5,3.5
			S92,102.6,92,100.6z"/>
		<path d="M142.1,98.9h9.7c1.9,0,3.5-1.6,3.5-3.5s-1.6-3.5-3.5-3.5h-9.7c-2,0-3.5,1.6-3.5,3.5S140.2,98.9,142.1,98.9z"/>
		<path d="M122.8,98.9h9.7c1.9,0,3.5-1.6,3.5-3.5s-1.6-3.5-3.5-3.5h-9.7c-1.9,0-3.5,1.6-3.5,3.5C119.2,97.3,120.8,98.9,122.8,98.9z"
			/>
		<path d="M103.4,98.9h9.7c1.9,0,3.5-1.6,3.5-3.5s-1.6-3.5-3.5-3.5h-9.7c-1.9,0-3.5,1.6-3.5,3.5S101.5,98.9,103.4,98.9z"/>
		<path d="M161.4,98.9h9.7c1.9,0,3.5-1.6,3.5-3.5s-1.6-3.5-3.5-3.5h-9.7c-1.9,0-3.5,1.6-3.5,3.5S159.5,98.9,161.4,98.9z"/>
		<path d="M180.8,98.9h1.8v1.8c0,1.9,1.6,3.5,3.5,3.5c1.4,0,2.5-0.8,3.1-1.9c0.2-0.5,0.4-1,0.4-1.6v-5.3c0-1.9-1.6-3.5-3.5-3.5h-5.3
			c-0.4,0-0.8,0.1-1.2,0.2c-1.4,0.5-2.3,1.8-2.3,3.3C177.2,97.3,178.8,98.9,180.8,98.9z"/>
		<path d="M182.5,110v9.4c0,1.9,1.6,3.5,3.5,3.5s3.5-1.6,3.5-3.5V110c0-1.9-1.6-3.5-3.5-3.5S182.5,108,182.5,110z"/>
		<path d="M182.5,128.7v9.4c0,1.9,1.6,3.5,3.5,3.5s3.5-1.6,3.5-3.5v-9.4c0-1.9-1.6-3.5-3.5-3.5S182.5,126.8,182.5,128.7z"/>
		<path d="M182.5,147.4v0.5h3.5c1.9,0,3.5,1.6,3.5,3.5v-4c0-1.9-1.6-3.5-3.5-3.5S182.5,145.5,182.5,147.4z"/>
		<path d="M186,147.9h-3.5h-37.4c-1.9,0-3.5,1.6-3.5,3.5v35.3v3.5c0,1.9,1.6,3.5,3.5,3.5h6.7h9.7h9.7h9.1h0.6h5.3
			c1.9,0,3.5-1.6,3.5-3.5v-5.3v-0.1v-9.3v-9.4v-9.4v-5.4C189.6,149.5,188,147.9,186,147.9z M171.1,186.7h-9.7h-9.7h-3.2V155h33.9
			v1.8v9.4v9.4v9.4v1.8h-1.8L171.1,186.7L171.1,186.7z"/>
	</g>
</g>
</svg>
