<?xml version="1.0" encoding="utf-8"?>
<!-- Generator: Adobe Illustrator 25.0.0, SVG Export Plug-In . SVG Version: 6.00 Build 0)  -->
<svg version="1.1" id="Layer_2" xmlns="http://www.w3.org/2000/svg" xmlns:xlink="http://www.w3.org/1999/xlink" x="0px" y="0px"
	 viewBox="0 0 96.1 96.1" style="enable-background:new 0 0 96.1 96.1;" xml:space="preserve">
<g id="Layer_2_1_">
	<g>
		<path d="M0.2,32.8C0.2,32.8,0.2,32.8,0.2,32.8C0.2,32.8,0.2,32.8,0.2,32.8z"/>
		<path d="M0,33.3C0,33.3,0.1,33.2,0,33.3C0.1,33.2,0,33.3,0,33.3z"/>
		<path d="M0.1,33.1C0.1,33,0.1,33,0.1,33.1C0.1,33,0.1,33,0.1,33.1z"/>
		<path d="M87.2,16.5H15.6c0,0,0,0,0,0c0.2,0,0.4,0,0.6,0.1c0.6,0.2,0.9,0.8,0.9,1.4v1.5h70.2c3.3,0,6,2.7,6,6v45.3c0,3.3-2.7,6-6,6
			H8.9c-3.3,0-6-2.7-6-6V35H1.5c-0.6,0-1.1-0.3-1.3-0.9C0.1,34,0,33.7,0,33.5c0,0,0,0,0,0v37.2c0,4.9,4,8.9,8.9,8.9h78.3
			c4.9,0,8.9-4,8.9-8.9V25.4C96.1,20.5,92.1,16.5,87.2,16.5z"/>
		<path d="M14.7,16.8C14.7,16.8,14.7,16.8,14.7,16.8C14.7,16.8,14.7,16.8,14.7,16.8z"/>
		<path d="M14.9,16.6C15,16.6,15,16.6,14.9,16.6C15,16.6,15,16.6,14.9,16.6z"/>
		<path d="M15.2,16.5C15.3,16.5,15.3,16.5,15.2,16.5C15.3,16.5,15.3,16.5,15.2,16.5z"/>
		<path d="M37.4,46.3c0.3,0,0.7-0.1,1-0.4l1.3-1.1l0.4-0.3c0.6-0.5,0.7-1.4,0.1-2.1l0,0c-0.5-0.6-1.4-0.7-2.1-0.1l-1.7,1.4
			c-0.6,0.5-0.7,1.5-0.1,2.1C36.6,46.1,37,46.3,37.4,46.3z"/>
		<path d="M43,41.8l3-2.6c0.6-0.5,0.7-1.5,0.1-2.1l0,0c-0.5-0.6-1.4-0.7-2.1-0.1l-3,2.6c-0.6,0.5-0.7,1.5-0.1,2.1l0,0
			c0.3,0.3,0.7,0.5,1.1,0.5C42.4,42.2,42.8,42.1,43,41.8z"/>
		<path d="M49,36.6l3-2.6c0.6-0.5,0.7-1.5,0.1-2.1l0,0c-0.5-0.6-1.4-0.7-2.1-0.1l-3,2.6c-0.6,0.5-0.7,1.5-0.1,2.1l0,0
			c0.3,0.3,0.7,0.5,1.1,0.5C48.4,37,48.7,36.8,49,36.6z"/>
		<path d="M54.9,31.4l3-2.6c0.6-0.5,0.7-1.4,0.1-2.1l0,0c-0.5-0.6-1.5-0.7-2.1-0.1l-3,2.6c-0.6,0.5-0.7,1.5-0.1,2.1l0,0
			c0.3,0.3,0.7,0.5,1.1,0.5C54.3,31.7,54.7,31.6,54.9,31.4z"/>
		<path d="M60.9,26.2l0.7-0.6l0.7,0.6c0.6,0.5,1.5,0.5,2.1-0.2l0,0c0.5-0.6,0.5-1.5-0.1-2.1l-1.7-1.4c-0.5-0.5-1.4-0.5-1.9,0L59,24
			c-0.6,0.5-0.7,1.4-0.1,2.1l0,0c0.3,0.3,0.7,0.5,1.1,0.5C60.3,26.5,60.6,26.4,60.9,26.2z"/>
		<path d="M65.3,28.8l3,2.6c0.3,0.2,0.6,0.4,1,0.4c0.4,0,0.8-0.2,1.1-0.5l0,0c0.5-0.6,0.5-1.5-0.2-2.1l-3-2.6
			c-0.6-0.5-1.5-0.5-2.1,0.1l0,0C64.6,27.3,64.6,28.2,65.3,28.8z"/>
		<path d="M77.2,39.2l3,2.6c0.3,0.2,0.6,0.4,1,0.4c0.4,0,0.8-0.2,1.1-0.5l0,0c0.5-0.6,0.5-1.5-0.2-2.1l-3-2.6
			c-0.6-0.5-1.5-0.5-2.1,0.2l0,0C76.6,37.8,76.6,38.7,77.2,39.2z"/>
		<path d="M71.3,34l3,2.6c0.3,0.2,0.6,0.4,1,0.4c0.4,0,0.8-0.2,1.1-0.5l0,0c0.5-0.6,0.5-1.5-0.2-2.1l-3-2.6
			c-0.6-0.5-1.5-0.5-2.1,0.2l0,0C70.6,32.5,70.7,33.5,71.3,34z"/>
		<path d="M83.2,44.4l0.4,0.3l1.3,1.1c0.3,0.2,0.6,0.4,1,0.4c0.4,0,0.8-0.2,1.1-0.5c0.5-0.6,0.5-1.5-0.2-2.1l-1.7-1.4
			c-0.6-0.5-1.5-0.5-2.1,0.2l0,0C82.6,43,82.6,43.9,83.2,44.4z"/>
		<path d="M80.2,44.8c-0.5,0.2-0.8,0.7-0.8,1.3l0,0v22.4H43.8V45.9l0,0c0-0.4-0.2-0.8-0.5-1.1c-0.3-0.2-0.6-0.4-1-0.4
			c-0.4,0-0.7,0.2-1,0.4c-0.3,0.3-0.5,0.7-0.5,1.1v24c0,0.8,0.7,1.5,1.5,1.5h38.6c0.8,0,1.5-0.7,1.5-1.5V46c0-0.5-0.3-1-0.8-1.3
			c-0.2-0.1-0.5-0.2-0.7-0.2C80.7,44.6,80.4,44.7,80.2,44.8z"/>
		<path d="M48.9,59.9h7.7c0.8,0,1.5-0.7,1.5-1.5v-9.6c0-0.8-0.7-1.5-1.5-1.5h-7.7c-0.8,0-1.5,0.7-1.5,1.5v9.6
			C47.4,59.2,48.1,59.9,48.9,59.9z M50.3,50.2h4.7v6.7h-4.7V50.2z"/>
		<path d="M66.6,59.9h7.7c0.8,0,1.5-0.7,1.5-1.5v-9.6c0-0.8-0.7-1.5-1.5-1.5h-7.7c-0.8,0-1.5,0.7-1.5,1.5v9.6
			C65.2,59.2,65.8,59.9,66.6,59.9z M68.1,50.2h4.7v6.7h-4.7V50.2z"/>
		<line x1="26.7" y1="67.8" x2="26.7" y2="66"/>
		<line x1="26.7" y1="58.4" x2="26.7" y2="56.6"/>
		<line x1="26.7" y1="49" x2="26.7" y2="47.2"/>
		<line x1="26.7" y1="30.1" x2="26.7" y2="28.3"/>
		<line x1="26.7" y1="39.5" x2="26.7" y2="37.7"/>
		<path d="M28.1,26.9v-0.7h-2.9v0.7c0,0.8,0.7,1.5,1.5,1.5C27.5,28.3,28.1,27.7,28.1,26.9z"/>
		<path d="M28.1,55.1v-4.7c0-0.8-0.7-1.5-1.5-1.5c-0.8,0-1.5,0.7-1.5,1.5v4.7c0,0.8,0.7,1.5,1.5,1.5C27.5,56.6,28.1,55.9,28.1,55.1z
			"/>
		<path d="M28.1,64.5v-4.7c0-0.8-0.7-1.5-1.5-1.5c-0.8,0-1.5,0.7-1.5,1.5v4.7c0,0.8,0.7,1.5,1.5,1.5C27.5,66,28.1,65.3,28.1,64.5z"
			/>
		<path d="M28.1,36.3v-4.7c0-0.8-0.7-1.5-1.5-1.5c-0.8,0-1.5,0.7-1.5,1.5v4.7c0,0.8,0.7,1.5,1.5,1.5C27.5,37.7,28.1,37.1,28.1,36.3z
			"/>
		<path d="M28.1,45.7V41c0-0.8-0.7-1.5-1.5-1.5c-0.8,0-1.5,0.7-1.5,1.5v4.7c0,0.8,0.7,1.5,1.5,1.5C27.5,47.2,28.1,46.5,28.1,45.7z"
			/>
		<path d="M25.2,69.2V70h2.9v-0.7c0-0.8-0.7-1.5-1.5-1.5C25.9,67.8,25.2,68.4,25.2,69.2z"/>
		<path d="M28.1,26.1h3.5c0.8,0,1.5-0.7,1.5-1.5s-0.7-1.5-1.5-1.5h-9.7c-0.8,0-1.5,0.7-1.5,1.5s0.7,1.5,1.5,1.5h3.4H28.1z"/>
		<path d="M25.2,70h-3.4c-0.8,0-1.5,0.7-1.5,1.5s0.7,1.5,1.5,1.5h9.7c0.8,0,1.5-0.7,1.5-1.5S32.3,70,31.5,70h-3.4H25.2z"/>
		<path d="M1.5,35h1.5h12.6c0.8,0,1.5-0.7,1.5-1.5V19.4V18c0-0.6-0.4-1.1-0.9-1.4c-0.2-0.1-0.4-0.1-0.6-0.1c-0.1,0-0.2,0-0.2,0
			c0,0,0,0-0.1,0c-0.1,0-0.2,0.1-0.3,0.1c0,0,0,0-0.1,0c-0.1,0-0.1,0.1-0.2,0.1c0,0,0,0-0.1,0c-0.1,0.1-0.2,0.1-0.2,0.2L0.4,32.6
			c-0.1,0.1-0.1,0.1-0.2,0.2c0,0,0,0,0,0.1c0,0.1-0.1,0.1-0.1,0.2c0,0,0,0.1,0,0.1c0,0.1,0,0.1-0.1,0.2c0,0,0,0,0,0.1
			c0,0.1,0,0.2,0,0.2c0,0.2,0,0.4,0.1,0.6C0.4,34.6,0.9,35,1.5,35z M4.8,32.1l9.3-10.3v10.3H4.8z"/>
	</g>
</g>
</svg>
