<?xml version="1.0" encoding="utf-8"?>
<!-- Generator: Adobe Illustrator 25.0.0, SVG Export Plug-In . SVG Version: 6.00 Build 0)  -->
<svg version="1.1" xmlns="http://www.w3.org/2000/svg" xmlns:xlink="http://www.w3.org/1999/xlink" x="0px" y="0px"
	 viewBox="0 0 512 512" style="enable-background:new 0 0 512 512;" xml:space="preserve">
<style type="text/css">
	.st0{display:none;}
	.st1{display:inline;}
	.st2{fill:none;}
</style>
<g id="Layer_1" class="st0">
	<g id="Layer_1_1_">
		<g class="st1">
			<g>
				<path d="M373.7,0H138.3C62.1,0,0,62.1,0,138.3v235.3C0,449.9,62.1,512,138.3,512h235.3c76.3,0,138.3-62.1,138.3-138.3V138.3
					C512,62.1,449.9,0,373.7,0z M470.6,373.7c0,53.5-43.5,97-97,97H138.3c-53.5,0-97-43.5-97-97V138.3c0-53.5,43.5-97,97-97h235.3
					c53.5,0,97,43.5,97,97V373.7z"/>
			</g>
		</g>
		<g class="st1">
			<g>
				<path d="M370.6,238.1c-3.6-24.5-14.8-46.8-32.4-64.3c-17.5-17.5-39.8-28.7-64.3-32.4c-11.2-1.7-22.5-1.7-33.7,0
					c-30.3,4.5-57.1,20.5-75.4,45.2s-25.9,54.9-21.4,85.2s20.5,57.1,45.2,75.4c20,14.8,43.7,22.6,68.2,22.6c5.7,0,11.4-0.4,17.1-1.3
					c30.3-4.5,57.1-20.5,75.4-45.2C367.5,298.7,375.1,268.5,370.6,238.1z M267.8,327.6c-19.4,2.9-38.8-2-54.5-13.7
					s-26-28.8-28.9-48.2c-2.9-19.4,2-38.8,13.7-54.5c11.7-15.8,28.8-26,48.2-28.9c3.6-0.5,7.2-0.8,10.8-0.8c3.6,0,7.2,0.3,10.8,0.8
					c32.2,4.8,57.1,29.6,61.9,61.9C335.6,284.3,307.9,321.7,267.8,327.6z"/>
			</g>
		</g>
		<g class="st1">
			<g>
				<path d="M400,112c-3.9-3.9-9.2-6.1-14.6-6.1s-10.8,2.2-14.6,6.1c-3.9,3.9-6.1,9.2-6.1,14.6s2.2,10.8,6.1,14.6
					c3.9,3.9,9.2,6.1,14.6,6.1s10.8-2.2,14.6-6.1c3.9-3.9,6.1-9.2,6.1-14.6C406.1,121.1,403.9,115.8,400,112z"/>
			</g>
		</g>
	</g>
	<g id="Layer_2_1_" class="st1">
		<g>
			<path d="M1,174.8c0.1-0.1,0.1-0.2,0.2-0.3C1.2,174.6,1.1,174.7,1,174.8z"/>
			<path d="M0.1,177.3c0-0.1,0.1-0.2,0.1-0.3C0.2,177.1,0.1,177.2,0.1,177.3z"/>
			<path d="M0.5,176.1c0-0.1,0.1-0.3,0.2-0.4C0.6,175.8,0.5,175.9,0.5,176.1z"/>
			<path d="M464.6,87.9H82.8c-0.1,0-0.1,0-0.2,0c1,0,2,0.1,3,0.5c3,1.2,5,4,5,7.3v7.8h374c17.6,0,31.8,14.3,31.8,31.8v241.4
				c0,17.6-14.3,31.9-31.8,31.9H47.4c-17.5,0-31.8-14.3-31.8-31.9V186.5H7.8c-3.1,0-5.9-1.8-7.1-4.6c-0.4-1-0.7-2.1-0.7-3.2
				c0,0,0,0,0,0.1v198c0,26.1,21.3,47.4,47.4,47.4h417.2c26.1,0,47.4-21.3,47.4-47.4V135.3C512,109.2,490.7,87.9,464.6,87.9z"/>
			<path d="M78.1,89.5c0.1-0.1,0.2-0.1,0.3-0.2C78.4,89.3,78.3,89.4,78.1,89.5z"/>
			<path d="M79.5,88.7c0.1,0,0.2-0.1,0.3-0.1C79.7,88.6,79.6,88.6,79.5,88.7z"/>
			<path d="M81.1,88.1c0.1,0,0.2,0,0.3-0.1C81.3,88.1,81.2,88.1,81.1,88.1z"/>
			<path d="M199.4,246.4c1.8,0,3.6-0.6,5.1-1.9l6.7-5.9l2.1-1.8c3.2-2.8,3.5-7.7,0.7-11l0,0c-2.8-3.2-7.7-3.6-11-0.7l-8.8,7.7
				c-3.2,2.8-3.6,7.8-0.7,11C195.1,245.5,197.2,246.4,199.4,246.4z"/>
			<path d="M229.1,222.8l15.9-13.9c3.2-2.8,3.5-7.8,0.7-11l0,0c-2.8-3.2-7.7-3.6-11-0.7l-15.9,13.9c-3.2,2.8-3.6,7.8-0.7,11l0,0
				c1.5,1.8,3.7,2.7,5.9,2.7C225.8,224.8,227.7,224.1,229.1,222.8z"/>
			<path d="M260.8,195l15.9-13.9c3.2-2.8,3.5-7.8,0.7-11l0,0c-2.8-3.2-7.7-3.6-11-0.7l-15.9,13.9c-3.2,2.8-3.5,7.8-0.7,11l0,0
				c1.5,1.7,3.7,2.6,5.9,2.6C257.5,196.9,259.4,196.3,260.8,195z"/>
			<path d="M292.6,167.2l15.9-13.9c3.2-2.8,3.5-7.7,0.7-11l0,0c-2.8-3.2-7.8-3.5-11-0.7l-15.9,13.9c-3.2,2.8-3.6,7.8-0.7,11l0,0
				c1.5,1.7,3.7,2.6,5.9,2.6C289.3,169.1,291.1,168.5,292.6,167.2z"/>
			<path d="M324.3,139.4l3.7-3.2l3.7,3.2c3.2,2.8,8.2,2.5,11-0.8l0,0c2.8-3.2,2.5-8.1-0.7-11l-8.8-7.7c-2.9-2.6-7.3-2.6-10.3,0
				l-8.8,7.7c-3.2,2.8-3.6,7.7-0.7,11l0,0c1.5,1.8,3.7,2.7,5.9,2.7C321,141.3,322.8,140.7,324.3,139.4z"/>
			<path d="M347.6,153.3l16,13.9c1.5,1.3,3.3,1.9,5.1,1.9c2.2,0,4.3-0.9,5.9-2.7l0,0c2.8-3.2,2.5-8.2-0.8-11l-16-13.9
				c-3.2-2.8-8.2-2.5-11,0.7l0,0C344,145.6,344.3,150.5,347.6,153.3z"/>
			<path d="M411.4,208.9l16,13.9c1.5,1.3,3.3,1.9,5.1,1.9c2.2,0,4.3-0.9,5.9-2.7l0,0c2.8-3.2,2.5-8.2-0.8-11l-16-13.9
				c-3.2-2.8-8.2-2.5-11,0.8l0,0C407.9,201.2,408.2,206.1,411.4,208.9z"/>
			<path d="M379.5,181.1l16,13.9c1.5,1.3,3.3,1.9,5.1,1.9c2.2,0,4.3-0.9,5.9-2.7l0,0c2.8-3.2,2.5-8.2-0.8-11l-16-13.9
				c-3.2-2.8-8.2-2.5-11,0.8l0,0C375.9,173.4,376.3,178.3,379.5,181.1z"/>
			<path d="M443.4,236.8l2.1,1.8l6.7,5.9c1.5,1.3,3.3,1.9,5.1,1.9c2.2,0,4.3-0.9,5.9-2.7c2.8-3.3,2.5-8.2-0.8-11l-8.8-7.7
				c-3.2-2.8-8.2-2.5-11,0.8l0,0C439.8,229,440.1,233.9,443.4,236.8z"/>
			<path d="M427.3,238.6c-2.4,1.3-4,3.8-4,6.7l0,0v119.3h-190V244.3l0,0c0-2.3-1-4.3-2.6-5.7c-1.4-1.3-3.2-2.1-5.2-2.1
				s-3.8,0.8-5.2,2.1c-1.6,1.4-2.6,3.5-2.6,5.7v128.1c0,4.3,3.5,7.8,7.8,7.8H431c4.3,0,7.8-3.5,7.8-7.8V245.3c0-2.9-1.6-5.4-4-6.8
				c-1.1-0.6-2.4-1-3.7-1C429.7,237.5,428.4,237.9,427.3,238.6z"/>
			<path d="M260.2,319H301c4.3,0,7.8-3.5,7.8-7.8v-51.3c0-4.3-3.5-7.8-7.8-7.8h-40.8c-4.3,0-7.8,3.5-7.8,7.8v51.3
				C252.4,315.5,255.9,319,260.2,319z M268,267.7h25.2v35.7H268V267.7z"/>
			<path d="M354.9,319h40.8c4.3,0,7.8-3.5,7.8-7.8v-51.3c0-4.3-3.5-7.8-7.8-7.8h-40.8c-4.3,0-7.8,3.5-7.8,7.8v51.3
				C347.1,315.5,350.6,319,354.9,319z M362.7,267.7h25.2v35.7h-25.2V267.7z"/>
			<line class="st2" x1="142" y1="361" x2="142" y2="351.5"/>
			<line class="st2" x1="142" y1="310.9" x2="142" y2="301.4"/>
			<line class="st2" x1="142" y1="260.8" x2="142" y2="251.2"/>
			<line class="st2" x1="142" y1="160.5" x2="142" y2="151"/>
			<line class="st2" x1="142" y1="210.6" x2="142" y2="201.1"/>
			<path d="M149.8,143.2v-3.9h-15.6v3.9c0,4.3,3.5,7.8,7.8,7.8S149.8,147.5,149.8,143.2z"/>
			<path d="M149.8,293.6v-25.1c0-4.3-3.5-7.8-7.8-7.8s-7.8,3.5-7.8,7.8v25.1c0,4.3,3.5,7.8,7.8,7.8S149.8,297.9,149.8,293.6z"/>
			<path d="M149.8,343.7v-25.1c0-4.3-3.5-7.8-7.8-7.8s-7.8,3.5-7.8,7.8v25.1c0,4.3,3.5,7.8,7.8,7.8S149.8,348,149.8,343.7z"/>
			<path d="M149.8,193.3v-25.1c0-4.3-3.5-7.8-7.8-7.8s-7.8,3.5-7.8,7.8v25.1c0,4.3,3.5,7.8,7.8,7.8S149.8,197.6,149.8,193.3z"/>
			<path d="M149.8,243.5v-25.1c0-4.3-3.5-7.8-7.8-7.8s-7.8,3.5-7.8,7.8v25.1c0,4.3,3.5,7.8,7.8,7.8
				C146.3,251.2,149.8,247.8,149.8,243.5z"/>
			<path d="M134.2,368.8v3.9h15.6v-3.9c0-4.3-3.5-7.8-7.8-7.8S134.2,364.5,134.2,368.8z"/>
			<path d="M149.8,139.3h18.4c4.3,0,7.8-3.5,7.8-7.8s-3.5-7.8-7.8-7.8h-51.9c-4.3,0-7.8,3.5-7.8,7.8s3.5,7.8,7.8,7.8h17.9H149.8z"/>
			<path d="M134.2,372.7h-18.1c-4.3,0-7.8,3.5-7.8,7.8s3.5,7.8,7.8,7.8h51.8c4.3,0,7.8-3.5,7.8-7.8s-3.5-7.8-7.8-7.8h-18.1H134.2z"
				/>
			<path d="M7.8,186.5h7.8h67.3c4.3,0,7.8-3.5,7.8-7.8v-75.2v-7.8c0-3.2-2-6.1-5-7.3c-1-0.4-2-0.5-3-0.5c-0.4,0-0.8,0.1-1.2,0.1
				c-0.1,0-0.2,0-0.3,0.1c-0.5,0.1-0.9,0.3-1.4,0.4c-0.1,0-0.2,0.1-0.3,0.1c-0.3,0.2-0.7,0.4-1,0.6c-0.1,0.1-0.2,0.2-0.3,0.2
				c-0.4,0.3-0.8,0.6-1.1,1L2,173.5c-0.3,0.3-0.6,0.7-0.8,1c-0.1,0.1-0.1,0.2-0.2,0.3c-0.2,0.3-0.3,0.5-0.4,0.8
				c-0.1,0.1-0.1,0.3-0.2,0.4c-0.1,0.3-0.2,0.6-0.3,0.9c0,0.1,0,0.2-0.1,0.3c-0.1,0.4-0.1,0.9-0.1,1.3c0,1.1,0.2,2.2,0.7,3.2
				C1.9,184.6,4.7,186.5,7.8,186.5z M25.3,170.9l49.7-55v55H25.3z"/>
		</g>
	</g>
</g>
<g id="Layer_2">
	<g>
		<polygon points="369.1,366 348.1,349.2 348.1,366 		"/>
		<path d="M7.8,433.9h228.5c-4.3,0-7.8-3.5-7.8-7.8v-7.8H15.6V93.6h324.7v169.2c0,4.3,3.5,7.8,7.8,7.8s7.8-3.5,7.8-7.8V85.9
			c0-4.3-3.5-7.8-7.8-7.8H7.8c-4.3,0-7.8,3.5-7.8,7.8v340.3C0,430.4,3.5,433.9,7.8,433.9z"/>
		<path d="M362.5,426.2v-7.8h-4.9v7.8c0,4.3-3.5,7.8-7.8,7.8h20.4C365.9,433.9,362.5,430.4,362.5,426.2z"/>
		<path d="M232.9,197.8c-2.7,1.3-4.4,4-4.4,7v213.5v7.8c0,4.3,3.5,7.8,7.8,7.8H264c-4.3,0-7.8-3.5-7.8-7.8v-7.8H244v-197l238.5,197
			h-33v6.8c0,4.3-3.5,7.8-7.8,7.8c-4.3,0-7.8-3.5-7.8-7.8v-6.8h-8.6v6.8c0,4.3-3.5,7.8-7.8,7.8c-4.3,0-7.8-3.5-7.8-7.8v-6.8h-7.6
			v6.8c0,4.3-3.5,7.8-7.8,7.8c-4.3,0-7.8-3.5-7.8-7.8v-6.8H378v7.8c0,4.3-3.5,7.8-7.8,7.8h134c3.3,0,6.2-2,7.3-5.1
			c1.1-3.1,0.2-6.6-2.4-8.6L348.1,287.1l-106.8-88.2C238.9,196.9,235.7,196.5,232.9,197.8z"/>
		<path d="M313.7,426.2v-7.8h-11.4v7.8c0,4.3-3.5,7.8-7.8,7.8h27C317.2,433.9,313.7,430.4,313.7,426.2z"/>
		<path d="M286.7,426.2v-7.8h-14.9v7.8c0,4.3-3.5,7.8-7.8,7.8h30.5C290.2,433.9,286.7,430.4,286.7,426.2z"/>
		<path d="M342,426.2v-7.8h-12.8v7.8c0,4.3-3.5,7.8-7.8,7.8h26.6h1.7C345.5,433.9,342,430.4,342,426.2z"/>
		<path d="M277.9,381.6h113.5c3.3,0,6.3-2.1,7.3-5.2c1.1-3.1,0.1-6.6-2.5-8.7l-113.5-90.5c-2.3-1.9-5.5-2.2-8.2-0.9
			c-2.7,1.3-4.4,4-4.4,7v90.5C270.1,378.1,273.6,381.6,277.9,381.6z M285.7,299.5l62.4,49.8l21.1,16.8h-21.1h-62.4V299.5z"/>
		<path d="M271.8,426.2v-7.8v-20.5c0-4.3-3.5-7.8-7.8-7.8c-4.3,0-7.8,3.5-7.8,7.8v20.5v7.8c0,4.3,3.5,7.8,7.8,7.8
			C268.3,433.9,271.8,430.4,271.8,426.2z"/>
		<path d="M302.3,426.2v-7.8v-5c0-4.3-3.5-7.8-7.8-7.8c-4.3,0-7.8,3.5-7.8,7.8v5v7.8c0,4.3,3.5,7.8,7.8,7.8
			C298.8,433.9,302.3,430.4,302.3,426.2z"/>
		<path d="M329.2,426.2v-7.8v-20.5c0-4.3-3.5-7.8-7.8-7.8c-4.3,0-7.8,3.5-7.8,7.8v20.5v7.8c0,4.3,3.5,7.8,7.8,7.8
			C325.8,433.9,329.2,430.4,329.2,426.2z"/>
		<path d="M378,426.2v-7.8v-20.5c0-4.3-3.5-7.8-7.8-7.8c-4.3,0-7.8,3.5-7.8,7.8v20.5v7.8c0,4.3,3.5,7.8,7.8,7.8
			C374.5,433.9,378,430.4,378,426.2z"/>
		<path d="M417.7,389c-4.3,0-7.8,3.5-7.8,7.8v21.5v6.8c0,4.3,3.5,7.8,7.8,7.8c4.3,0,7.8-3.5,7.8-7.8v-6.8v-21.5
			C425.5,392.6,422,389,417.7,389z"/>
		<path d="M357.6,426.2v-7.8V412c0-4.3-3.5-7.8-7.8-7.8c-4.3,0-7.8,3.5-7.8,7.8v6.4v7.8c0,4.3,3.5,7.8,7.8,7.8
			C354.1,433.9,357.6,430.4,357.6,426.2z"/>
		<path d="M394.5,403.2c-4.3,0-7.8,3.5-7.8,7.8v7.4v6.8c0,4.3,3.5,7.8,7.8,7.8c4.3,0,7.8-3.5,7.8-7.8v-6.8V411
			C402.3,406.7,398.8,403.2,394.5,403.2z"/>
		<path d="M441.8,403.2c-4.3,0-7.8,3.5-7.8,7.8v7.4v6.8c0,4.3,3.5,7.8,7.8,7.8c4.3,0,7.8-3.5,7.8-7.8v-6.8V411
			C449.6,406.7,446.1,403.2,441.8,403.2z"/>
		<path d="M178.1,377.9c0-3.9,2.9-7.1,6.6-7.7c-0.4-0.1-0.8-0.1-1.2-0.1h-11.7c-4.3,0-7.8,3.5-7.8,7.8c0,4.3,3.5,7.8,7.8,7.8h11.7
			c0.4,0,0.8-0.1,1.2-0.1C181,385,178.1,381.8,178.1,377.9z"/>
		<path d="M189.8,366.3v3.9h-3.9c-0.4,0-0.9,0.1-1.3,0.1c-3.7,0.6-6.6,3.8-6.6,7.7c0,3.9,2.9,7.1,6.6,7.7c0.4,0.1,0.8,0.1,1.3,0.1
			h11.7c4.3,0,7.8-3.5,7.8-7.8v-11.7c0-4.3-3.5-7.8-7.8-7.8C193.3,358.5,189.8,361.9,189.8,366.3z"/>
		<path d="M189.8,320.3v23c0,4.3,3.5,7.8,7.8,7.8c4.3,0,7.8-3.5,7.8-7.8v-23c0-4.3-3.5-7.8-7.8-7.8
			C193.3,312.5,189.8,316,189.8,320.3z"/>
		<path d="M189.8,182.4v23c0,1.3,0.4,2.5,0.9,3.6c2.3,0.5,4.3,2,5.3,4.1c0.5,0.1,1,0.2,1.6,0.2c4.3,0,7.8-3.5,7.8-7.8v-23
			c0-4.3-3.5-7.8-7.8-7.8C193.3,174.6,189.8,178.1,189.8,182.4z"/>
		<path d="M189.8,274.3v23c0,4.3,3.5,7.8,7.8,7.8c4.3,0,7.8-3.5,7.8-7.8v-23c0-4.3-3.5-7.8-7.8-7.8
			C193.3,266.5,189.8,270,189.8,274.3z"/>
		<path d="M191.1,224c-0.8,1.2-1.3,2.7-1.3,4.3v23c0,4.3,3.5,7.8,7.8,7.8c4.3,0,7.8-3.5,7.8-7.8v-23c0-4.3-3.5-7.8-7.8-7.8
			c-0.7,0-1.3,0.1-2,0.3C194.6,222.4,193,223.5,191.1,224z"/>
		<path d="M197.6,139.9h-11.7c-0.4,0-0.9,0.1-1.3,0.1c3.7,0.6,6.6,3.8,6.6,7.7s-2.9,7.1-6.6,7.7c0.4,0,0.8,0.1,1.3,0.1h3.9v3.9
			c0,4.3,3.5,7.8,7.8,7.8c4.3,0,7.8-3.5,7.8-7.8v-11.7C205.3,143.4,201.9,139.9,197.6,139.9z"/>
		<path d="M184.7,155.4c3.7-0.6,6.6-3.8,6.6-7.7s-2.9-7.1-6.6-7.7c-0.4-0.1-0.8-0.1-1.2-0.1h-11.7c-4.3,0-7.8,3.5-7.8,7.8
			c0,4.3,3.5,7.8,7.8,7.8h11.7C183.9,155.5,184.3,155.4,184.7,155.4z"/>
		<path d="M191.1,224c1.9-0.5,3.5-1.6,4.5-3.2c0.8-1.2,1.3-2.7,1.3-4.3c0-1.3-0.3-2.5-0.9-3.6c-1.1-2.1-3-3.6-5.3-4.1
			c-0.5-0.1-1-0.2-1.6-0.2h-17.4h-26.9v-61.1c0-4.3-3.5-7.8-7.8-7.8H61.3c-4.3,0-7.8,3.5-7.8,7.8v68.8c0-4.3,3.5-7.8,7.8-7.8
			c4.3,0,7.8,3.5,7.8,7.8v7.8h102.7h17.4C189.8,224.3,190.5,224.2,191.1,224z M129.3,155.5v53.3H69.1v-53.3H129.3z"/>
		<path d="M61.3,208.7c-4.3,0-7.8,3.5-7.8,7.8v133.9c0,0.7,0.1,1.3,0.3,1.9c0.9-3.4,3.9-5.9,7.5-5.9c3.6,0,6.7,2.5,7.5,5.9
			c0.2-0.6,0.3-1.2,0.3-1.9V224.3v-7.8C69.1,212.2,65.6,208.7,61.3,208.7z"/>
		<path d="M61.3,346.4c-3.6,0-6.7,2.5-7.5,5.9c-0.2,0.6-0.3,1.2-0.3,1.9v23.7c0,4.3,3.5,7.8,7.8,7.8h35.4c4.3,0,7.8-3.5,7.8-7.8
			c0-4.3-3.5-7.8-7.8-7.8H85h-16v-10.7v-5.2c0-0.7-0.1-1.3-0.3-1.9C68,348.9,64.9,346.4,61.3,346.4z"/>
	</g>
</g>
</svg>
