<svg xmlns="http://www.w3.org/2000/svg" viewBox="0 0 32 32"><g id="barrier"><path d="M28,13a1,1,0,0,0,1-1V7a1,1,0,0,0-1-1H26V4a1,1,0,0,0,0-2H21a1,1,0,0,0,0,2V6H14a1,1,0,0,0,0,2H27v3H5V8h5a1,1,0,0,0,1-1V4a1,1,0,0,0,0-2H6A1,1,0,0,0,6,4V6H4A1,1,0,0,0,3,7v5a1,1,0,0,0,1,1H6v2H4a1,1,0,0,0-1,1v5a1,1,0,0,0,1,1H6v7a1,1,0,0,0,1,1h3a1,1,0,0,0,1-1V22H24v6H23V25a1,1,0,0,0-2,0v4a1,1,0,0,0,1,1h3a1,1,0,0,0,1-1V22h2a1,1,0,0,0,1-1V16a1,1,0,0,0-1-1H26V13ZM23,6V4h1V6ZM8,4H9V6H8Zm3,11V13H21v2ZM8,13H9v2H8ZM9,28H8V22H9Zm18-8H5V17H27Zm-3-5H23V13h1Z"/></g></svg>