<svg xmlns="http://www.w3.org/2000/svg" viewBox="0 0 32 32"><g id="cement"><path d="M26.4,24.84a.9.9,0,0,1-.17-.8A42.45,42.45,0,0,0,27,15a41.56,41.56,0,0,0-.78-7,.92.92,0,0,1,.17-.78,3.39,3.39,0,0,0,.5-.71,2.74,2.74,0,0,0-.18-3.17,2.74,2.74,0,0,0-3.17-.18,3.39,3.39,0,0,0-.7.49.79.79,0,0,1-.7.14,26,26,0,0,0-12.25,0,.81.81,0,0,1-.72-.12,3.39,3.39,0,0,0-.71-.5,2.76,2.76,0,0,0-3.17.18,2.74,2.74,0,0,0-.18,3.17,3.39,3.39,0,0,0,.49.7A.92.92,0,0,1,5.78,8,41.36,41.36,0,0,0,5.19,20.1a1,1,0,0,0,1.1.9,1,1,0,0,0,.89-1.1A39.74,39.74,0,0,1,7,15a38.59,38.59,0,0,1,.74-6.68,2.92,2.92,0,0,0-.66-2.53,1,1,0,0,1-.19-.27,1.44,1.44,0,0,1-.19-.82,1.26,1.26,0,0,1,.84.17,1.26,1.26,0,0,1,.28.19,2.76,2.76,0,0,0,2.54.59,24.16,24.16,0,0,1,11.31,0,2.77,2.77,0,0,0,2.52-.6,1,1,0,0,1,.27-.19,1.53,1.53,0,0,1,.82-.19,1.26,1.26,0,0,1-.17.84,1,1,0,0,1-.19.27,2.92,2.92,0,0,0-.66,2.53A38.59,38.59,0,0,1,25,15a39.83,39.83,0,0,1-.74,8.64,2.92,2.92,0,0,0,.66,2.53,1,1,0,0,1,.19.27,1.44,1.44,0,0,1,.19.82,1.52,1.52,0,0,1-1.12-.36,2.76,2.76,0,0,0-2.54-.59,24.16,24.16,0,0,1-11.31,0,2.77,2.77,0,0,0-2.52.6,1,1,0,0,1-.27.19,1.53,1.53,0,0,1-.82.19,1.52,1.52,0,0,1,.36-1.12,2.92,2.92,0,0,0,.66-2.52,1,1,0,0,0-1.18-.79A1,1,0,0,0,5.77,24a.9.9,0,0,1-.16.79,3.39,3.39,0,0,0-.5.71,2.74,2.74,0,0,0,.18,3.17,2.74,2.74,0,0,0,3.17.18,3.39,3.39,0,0,0,.7-.49.79.79,0,0,1,.7-.14,26,26,0,0,0,12.25,0,.81.81,0,0,1,.72.12,3.39,3.39,0,0,0,.71.5,3.67,3.67,0,0,0,1.63.41,2.14,2.14,0,0,0,1.54-.59,2.74,2.74,0,0,0,.18-3.17A3.39,3.39,0,0,0,26.4,24.84Z"/><path d="M19.77,13.33A4,4,0,1,0,16,16a1,1,0,0,0,0-2,2,2,0,1,1,2-2,2.19,2.19,0,0,1-.11.67,1,1,0,0,0,1.88.66Z"/><path d="M18,18H14a1,1,0,0,0,0,2h4a1,1,0,0,0,0-2Z"/><path d="M11,22a1,1,0,0,0,1,1h8a1,1,0,0,0,0-2H12A1,1,0,0,0,11,22Z"/></g></svg>