<svg xmlns="http://www.w3.org/2000/svg" viewBox="0 0 32 32"><g id="crane"><path d="M29,21H23.32L17,16.49v-.95a2.79,2.79,0,0,0,.55-.2,2.61,2.61,0,0,0,0-4.68L17,10.38V9h.21a2,2,0,0,0,1.95-1.52L20,4.24a1,1,0,0,0-.18-.86A1,1,0,0,0,19,3H13a1,1,0,0,0-.79.38,1,1,0,0,0-.18.86l.81,3.24A2,2,0,0,0,14.79,9H15v2a1,1,0,0,0,.55.89l1.11.56A.6.6,0,0,1,17,13a.63.63,0,0,1-.4.58.62.62,0,0,1-.72-.11l-.17-.18a1,1,0,0,0-1.42,1.42l.18.17a2.55,2.55,0,0,0,.53.4v1.21l-6.58,4.7s0,0-.06.06a1.85,1.85,0,0,0-.14.14c0,.05-.07.1-.1.16a.49.49,0,0,0-.06.17.71.71,0,0,0,0,.2A.24.24,0,0,0,8,22s0,.07,0,.1a1.18,1.18,0,0,0,0,.2.75.75,0,0,0,.08.18s0,.07,0,.1,0,0,.06.06a1.85,1.85,0,0,0,.14.14l.16.1a.49.49,0,0,0,.17.06.71.71,0,0,0,.2,0L9,23H28v3H4V23H5a1,1,0,0,0,0-2H3a1,1,0,0,0-1,1v5a1,1,0,0,0,1,1H29a1,1,0,0,0,1-1V22A1,1,0,0,0,29,21ZM14.78,7l-.5-2h3.44l-.5,2H14.78ZM16,18.23,19.88,21H12.12Z"/></g></svg>