<svg xmlns="http://www.w3.org/2000/svg" viewBox="0 0 32 32"><g id="crane_2" data-name="crane 2"><path d="M16,9a4,4,0,0,0,0,8,1,1,0,0,0,0-2,2,2,0,1,1,2-2,2.19,2.19,0,0,1-.11.67,1,1,0,0,0,1.88.66A4,4,0,0,0,16,9Z"/><path d="M22,8.15A.8.8,0,0,0,22,8V3a1,1,0,0,0-2,0V6.2a7.27,7.27,0,0,0-8,0V3a1,1,0,0,0-2,0V8a.8.8,0,0,0,0,.15A7.11,7.11,0,0,0,9,13.92l.08.34a16.65,16.65,0,0,0,4.26,7.44A1,1,0,0,0,14,22h1v3.16a1,1,0,0,0,.53.88l1.11.59a.7.7,0,0,1,.36.63.75.75,0,0,1-.42.68.57.57,0,0,1-.68-.13l-.18-.18a1,1,0,0,0-1.41,0,1,1,0,0,0,0,1.42l.17.18A2.56,2.56,0,0,0,16.3,30a2.74,2.74,0,0,0,1.27-5.14L17,24.55V22h1a1,1,0,0,0,.71-.3A16.65,16.65,0,0,0,23,14.26l.08-.34A7.11,7.11,0,0,0,22,8.15Zm-.86,5.3-.08.29A14.67,14.67,0,0,1,17.57,20H14.43A14.67,14.67,0,0,1,11,13.74l-.08-.29a5.17,5.17,0,0,1,1-4.44,5.27,5.27,0,0,1,8.28,0A5.17,5.17,0,0,1,21.11,13.45Z"/></g></svg>