<svg xmlns="http://www.w3.org/2000/svg" viewBox="0 0 32 32"><g id="demolition_crane" data-name="demolition crane"><path d="M20.67,17.78a1,1,0,0,0-1.42.08,1,1,0,0,0,.08,1.41A5,5,0,1,1,16,18a1,1,0,0,0,1-1V14.54a2.79,2.79,0,0,0,.55-.2,2.61,2.61,0,0,0,0-4.68L17,9.38V8h.21a2,2,0,0,0,1.95-1.52L20,3.24a1,1,0,0,0-.18-.86A1,1,0,0,0,19,2H13a1,1,0,0,0-.79.38,1,1,0,0,0-.18.86l.81,3.24A2,2,0,0,0,14.79,8H15v2a1,1,0,0,0,.55.89l1.11.56A.6.6,0,0,1,17,12a.63.63,0,0,1-.4.58.62.62,0,0,1-.72-.11l-.17-.18a1,1,0,0,0-1.42,1.42l.18.17a2.55,2.55,0,0,0,.53.4v1.8a7,7,0,1,0,5.67,1.7ZM14.78,6l-.5-2h3.44l-.5,2h0V6Z"/></g></svg>