<svg xmlns="http://www.w3.org/2000/svg" viewBox="0 0 32 32"><g id="drill"><path d="M26.93,5H20a1,1,0,0,0,0,2h6.93A1.07,1.07,0,0,1,28,8.07v3.86A1.07,1.07,0,0,1,26.93,13H18.22c-.41,0-.82,0-1.22-.06V6.35a1,1,0,0,0,0-.17A.81.81,0,0,0,17,6a1,1,0,0,0-1.14-.84l-4.1.68A2.08,2.08,0,0,0,10.22,7H9A3,3,0,0,0,6.18,9H3a1,1,0,0,0,0,2H6.18A3,3,0,0,0,9,13h1.22a2.08,2.08,0,0,0,1.51,1.14l3.91.65a15.85,15.85,0,0,0,2.58.21h2.63l-.73,5.12a3.23,3.23,0,0,0-1.51.86l-.72.72A3,3,0,0,0,17,23.84v1.29A1.87,1.87,0,0,0,18.87,27h7.26A1.87,1.87,0,0,0,28,25.13V21.87A1.87,1.87,0,0,0,26.13,20h-4l.72-5H25v2a1,1,0,0,0,2,0V15a3.07,3.07,0,0,0,3-3.06V8.07A3.08,3.08,0,0,0,26.93,5ZM8,10A1,1,0,0,1,9,9h1v2H9A1,1,0,0,1,8,10Zm4.06-2.16L15,7.35v5.29l-3-.55ZM26,25H19V23.84a1.06,1.06,0,0,1,.3-.73l.72-.72A1.36,1.36,0,0,1,21,22h5Z"/></g></svg>