<svg xmlns="http://www.w3.org/2000/svg" viewBox="0 0 32 32"><g id="helmet"><path d="M28.58,18h-.5A12.75,12.75,0,0,0,20,5.75V5.59A2.59,2.59,0,0,0,17.41,3H14.59A2.59,2.59,0,0,0,12,5.59V9a1,1,0,0,0,2,0V5.59A.58.58,0,0,1,14.59,5h2.82a.58.58,0,0,1,.59.59V9a1,1,0,0,0,2,0V7.92a10.74,10.74,0,0,1,6,11,1,1,0,0,0,.24.78A1,1,0,0,0,27,20h1v2H4V20H5a1,1,0,0,0,.75-.34A1,1,0,0,0,6,18.88,10.74,10.74,0,0,1,9.33,9.73,1,1,0,1,0,8,8.27a12.8,12.8,0,0,0-4,9.73h-.5A1.41,1.41,0,0,0,2,19.42v3.16A1.41,1.41,0,0,0,3.42,24H28.58A1.41,1.41,0,0,0,30,22.58V19.42A1.41,1.41,0,0,0,28.58,18Z"/><path d="M9,19a1,1,0,0,0,1,1H22a1,1,0,0,0,0-2H10A1,1,0,0,0,9,19Z"/></g></svg>