<svg xmlns="http://www.w3.org/2000/svg" viewBox="0 0 32 32"><g id="hydraulic_breaker" data-name="hydraulic breaker"><path d="M26.5,4H24a1,1,0,0,0,0,2h2.5a.5.5,0,0,1,0,1H21V3.87A1.87,1.87,0,0,0,19.13,2H12.87A1.87,1.87,0,0,0,11,3.87V4H5.5a2.5,2.5,0,0,0,0,5H11v.05a5,5,0,0,0,.53,2.24l1.58,3.16A1,1,0,0,0,14,15h3v5a1,1,0,0,1-2,0V18a1,1,0,0,0-2,0v2a3,3,0,0,0,2,2.82V29a1,1,0,0,0,2,0V22.82A3,3,0,0,0,19,20V14.24l1.47-3A5,5,0,0,0,21,9.05V9h5.5a2.5,2.5,0,0,0,0-5ZM5.5,7a.5.5,0,0,1,0-1H11V7ZM19,9.05a3,3,0,0,1-.32,1.35L17.38,13H14.62l-1.3-2.6A3,3,0,0,1,13,9.05V4h6Z"/><path d="M17,6H15a1,1,0,0,0,0,2h2a1,1,0,0,0,0-2Z"/></g></svg>