<svg xmlns="http://www.w3.org/2000/svg" viewBox="0 0 32 32"><g id="paint_bucket" data-name="paint bucket"><path d="M27,6v-.1A1.92,1.92,0,0,0,25.08,4H6.92A1.92,1.92,0,0,0,5,5.92V6A3.18,3.18,0,0,0,2,9.19V10a8.7,8.7,0,0,0,4.47,7.58l.43,7.69A2.9,2.9,0,0,0,9.79,28H22.21a2.9,2.9,0,0,0,2.89-2.73l.18-3.21a1,1,0,0,0-1-1.06,1,1,0,0,0-1,.94l-.18,3.22a.9.9,0,0,1-.89.84H9.79a.9.9,0,0,1-.89-.84l-.37-6.61,2.56,1.14A3,3,0,0,0,14,22h4a3,3,0,0,0,2.91-2.31L24.83,18a1,1,0,0,0,.4-.22A8.67,8.67,0,0,0,30,10V9.19A3.18,3.18,0,0,0,27,6ZM7,6H25V8H7Zm1.22,6.94A1,1,0,0,0,7.17,12a1,1,0,0,0-1,1.06l.12,2A6.68,6.68,0,0,1,4,10V9.19A1.17,1.17,0,0,1,5,8v0A1.92,1.92,0,0,0,6.92,10h17l-.35,6.31-2.94,1.31A3,3,0,0,0,18,16H14a3,3,0,0,0-2.65,1.62L8.41,16.31ZM18,20H14a1,1,0,0,1,0-2h4a1,1,0,0,1,0,2ZM28,10a6.68,6.68,0,0,1-2.34,5.08l.3-5.3a1.94,1.94,0,0,0,1-1.7V8a1.17,1.17,0,0,1,1,1.15Z"/></g></svg>