<svg xmlns="http://www.w3.org/2000/svg" viewBox="0 0 32 32"><g id="paint_brush" data-name="paint brush"><path d="M22,2H9A1,1,0,0,0,8,3V6A1,1,0,0,0,9,7h1.5a.5.5,0,0,1,.5.5A2.5,2.5,0,0,0,13.5,10,2.35,2.35,0,0,0,14,9.94a2.5,2.5,0,0,0,5-.44v-2a.5.5,0,0,1,.5-.5H21V17.24A1.76,1.76,0,0,1,19.24,19H11.76A1.76,1.76,0,0,1,10,17.24V16h8a1,1,0,0,0,0-2H10V10a1,1,0,0,0-2,0v7.24A3.77,3.77,0,0,0,11.76,21h1.13l-.57,5.4a3.2,3.2,0,1,0,6.36,0L18.11,21h1.13A3.77,3.77,0,0,0,23,17.24V3A1,1,0,0,0,22,2ZM16.7,26.64a1.18,1.18,0,0,1-.3.95,1.22,1.22,0,0,1-1.8,0,1.19,1.19,0,0,1-.3-1L14.9,21h1.2ZM19.5,5A2.5,2.5,0,0,0,17,7.5v2a.5.5,0,0,1-1,0V7a1,1,0,0,0-2,0v.5a.5.5,0,0,1-1,0A2.5,2.5,0,0,0,10.5,5H10V4H21V5Z"/></g></svg>