<svg xmlns="http://www.w3.org/2000/svg" viewBox="0 0 32 32"><g id="safety"><path d="M28.56,13l-1.46-2.2a.51.51,0,0,1-.1-.32V4.35A2.35,2.35,0,0,0,24.65,2H21a1,1,0,0,0-.89.55L16,10.76,11.89,2.55A1,1,0,0,0,11,2H7.35A2.35,2.35,0,0,0,5,4.35v6.17a.56.56,0,0,1-.1.33L3.44,13A2.57,2.57,0,0,0,3,14.48V18a1,1,0,0,0,1,1H15v5H5V22a1,1,0,0,0-2,0v7a1,1,0,0,0,1,1H28a1,1,0,0,0,1-1V14.48A2.57,2.57,0,0,0,28.56,13ZM21.62,4h3a.35.35,0,0,1,.35.35v6.17A2.57,2.57,0,0,0,25.44,12l1.46,2.2a.51.51,0,0,1,.1.32V17H23V8a1,1,0,0,0-2,0v9H17V13.24ZM5.1,14.15,6.56,12A2.57,2.57,0,0,0,7,10.52V4.35A.35.35,0,0,1,7.35,4H9V17H5V14.48A.56.56,0,0,1,5.1,14.15ZM11,17V5.24l4,8V17Zm6,2H27v5H17ZM5,26H15v2H5Zm12,2V26H27v2Z"/></g></svg>