<svg xmlns="http://www.w3.org/2000/svg" viewBox="0 0 32 32"><g id="saw"><path d="M29.27,4.34,27.81,2.82a2,2,0,0,0-2.84,0L9.88,17.37h0l-6.11,5.9a2.5,2.5,0,0,0,1.7,4.3,2.28,2.28,0,0,0,1.38-.39L9,29.4a1.93,1.93,0,0,0,1.38.6h0a1.93,1.93,0,0,0,1.36-.55l2.7-2.61h0a2.65,2.65,0,0,0,.45-3.22l-3.09-5.36,14.54-14,1.47,1.53L17,19.38a1,1,0,0,0,.16,1.4,1,1,0,0,0,.62.22,1,1,0,0,0,.79-.38L29.4,7A2,2,0,0,0,29.27,4.34ZM13.18,24.62a.64.64,0,0,1-.1.78h0L10.43,28,8,25.47A1.48,1.48,0,0,0,6.89,25a1.5,1.5,0,0,0-1,.42.51.51,0,0,1-.36.14.49.49,0,0,1-.35-.15.5.5,0,0,1,0-.71l5.19-5Z"/><path d="M8.36,23a1,1,0,0,0,0,1.41l.69.72a1,1,0,0,0,.72.31,1.05,1.05,0,0,0,.7-.28,1,1,0,0,0,0-1.42L9.78,23A1,1,0,0,0,8.36,23Z"/></g></svg>