<svg xmlns="http://www.w3.org/2000/svg" viewBox="0 0 32 32"><g id="screwdriver"><path d="M26.4,4.19,24,2.37a1,1,0,0,0-1.17,0L20.23,4.12a1,1,0,0,0-.42.64l-.37,2-5.1,6.67a1,1,0,0,0,1.59,1.22l4.63-6.07.8.61-6.07,8L13.7,15.88h0l-.79-.6a1,1,0,0,0-1.46,1.31l-1.53,1a1.26,1.26,0,0,0-.24.22L8.47,19.44h0l-4,5.22A2.44,2.44,0,0,0,5,28.08l1.69,1.28a2.4,2.4,0,0,0,1.47.5,1.83,1.83,0,0,0,.33,0,2.39,2.39,0,0,0,1.61-.93l1.76-2.3a1,1,0,0,0-1.59-1.22l-1.76,2.3a.41.41,0,0,1-.28.17.43.43,0,0,1-.33-.09L6.16,26.49a.44.44,0,0,1-.08-.62l3.37-4.42,3.18,2.43a1.08,1.08,0,0,0,.61.2,1,1,0,0,0,.8-.39l0-.05,0,0,1.15-1.51a1.08,1.08,0,0,0,.15-.28l.6-1.76a.86.86,0,0,0,.27.05,1,1,0,0,0,.61-1.8l6.53-8.56,1.8-.87a1,1,0,0,0,.5-.58l1-3A1,1,0,0,0,26.4,4.19Zm-15.22,15,1.88-1.28.62.47.62.48L13.56,21l-.51.67-2.38-1.82ZM24,7.26l-1.09.53-.7-.53-.7-.54.23-1.18L23.37,4.4l1.24.94Z"/></g></svg>