<svg xmlns="http://www.w3.org/2000/svg" viewBox="0 0 32 32"><g id="screws"><path d="M14,2H11.29a1,1,0,0,0-.83.44,1.24,1.24,0,0,1-1,.56,1.33,1.33,0,0,1-1-.56A1,1,0,0,0,7.69,2H5a1,1,0,0,0-1,.92A7.49,7.49,0,0,0,4,4.08,7.87,7.87,0,0,0,6,8.61V23a1,1,0,0,0,.15.53l2.5,4a1,1,0,0,0,1.7,0l2.5-4A1,1,0,0,0,13,23V21a1,1,0,0,0-2,0v1.71l-1.5,2.4L8,22.71V21.48l4.62-3.7s0,0,0,0a1,1,0,0,0,.13-.16.65.65,0,0,0,.1-.15.85.85,0,0,0,.06-.17.78.78,0,0,0,0-.21s0,0,0-.05V8.58a7.83,7.83,0,0,0,2-4.5,7.49,7.49,0,0,0,0-1.16A1,1,0,0,0,14,2ZM7.23,4A3.16,3.16,0,0,0,9.49,5a3.23,3.23,0,0,0,2.27-1H13a5.84,5.84,0,0,1-1.26,3H7.26A5.68,5.68,0,0,1,6,4ZM8,9h3v1.52l-3,2.4Zm0,6.48,3-2.4v3.44l-3,2.4Z"/><path d="M28,4.92A1,1,0,0,0,27,4H24.31a1,1,0,0,0-.83.44,1.24,1.24,0,0,1-1,.56,1.33,1.33,0,0,1-1-.56A1,1,0,0,0,20.71,4H18a1,1,0,0,0-1,.92,7.49,7.49,0,0,0,0,1.16,7.84,7.84,0,0,0,2,4.52L19,13a1,1,0,0,0,1,1,1,1,0,0,0,1-1l0-2h3v1.52l-4.62,3.7s0,0,0,0a1,1,0,0,0-.13.16.65.65,0,0,0-.1.15.85.85,0,0,0-.06.17c0,.07,0,.14,0,.21s0,0,0,.05v8a1.08,1.08,0,0,0,.15.53l2.5,4a1,1,0,0,0,.85.47,1,1,0,0,0,.85-.47l2.5-4A1,1,0,0,0,26,25V10.58a7.76,7.76,0,0,0,2-4.5A7.49,7.49,0,0,0,28,4.92ZM20.28,9A5.84,5.84,0,0,1,19,6h1.23a3.16,3.16,0,0,0,2.26,1,3.22,3.22,0,0,0,2.27-1H26a5.68,5.68,0,0,1-1.26,3ZM24,18.52l-3,2.4V17.48l3-2.4Zm-1.5,8.59L21,24.71V23.48l3-2.4v3.63Z"/></g></svg>