<svg xmlns="http://www.w3.org/2000/svg" viewBox="0 0 32 32"><g id="spade"><path d="M27.73,5.31a1.65,1.65,0,0,0-.67-1.08L24.27,2.29a1.71,1.71,0,0,0-1.56-.18A2.38,2.38,0,0,0,21.58,3l-.81,1.16a2.4,2.4,0,0,0-.44,1.37V6a2,2,0,0,0,.07.48L10.18,21.11A2.48,2.48,0,0,0,9.77,23a2.51,2.51,0,0,0,1,1.61,2.47,2.47,0,0,0,1.43.45,2.18,2.18,0,0,0,.44,0,2.47,2.47,0,0,0,1.61-1l2-2.87,1.64,1.14-3.27,4.69a1.52,1.52,0,0,1-1.22.65l-4.79.1L7.08,23.15a1.52,1.52,0,0,1,.19-1.36l3.28-4.71a1,1,0,0,0,1-1.72,1.8,1.8,0,0,0-1.37-.3A1.85,1.85,0,0,0,9,15.82L5.63,20.65a3.55,3.55,0,0,0-.44,3.16L7,29a1,1,0,0,0,1,.67H8l5.51-.11a3.51,3.51,0,0,0,2.82-1.5l3.36-4.83a1.8,1.8,0,0,0,.3-1.37,1.85,1.85,0,0,0-.76-1.19l-1.77-1.23,1.13-1.63h0a1,1,0,0,0-.25-1.39l-1.64-1.14,5.15-7.39.82.58-3.46,5a1,1,0,1,0,1.64,1.14l3.69-5.3A1.93,1.93,0,0,0,25,9.19l.39-.14a2.46,2.46,0,0,0,1.14-.89L27.32,7A2.29,2.29,0,0,0,27.73,5.31ZM16.36,17.49l-3.72,5.34A.5.5,0,0,1,12,23a.51.51,0,0,1-.13-.7l3.72-5.33ZM25.68,5.86,24.88,7a.39.39,0,0,1-.17.15l-.29.11L22.76,6.1l-.42-.29V5.5a.53.53,0,0,1,.08-.2l.81-1.16.08-.09,2.44,1.7A.41.41,0,0,1,25.68,5.86Z"/></g></svg>