<svg xmlns="http://www.w3.org/2000/svg" viewBox="0 0 32 32"><g id="tool_box" data-name="tool box"><path d="M27.05,9H25a1,1,0,0,0,0,2h2.05A1,1,0,0,1,28,12V15H24v-.1A1.9,1.9,0,0,0,22.1,13H20.9A1.9,1.9,0,0,0,19,14.9V15H13v-.1A1.9,1.9,0,0,0,11.1,13H9.9A1.9,1.9,0,0,0,8,14.9V15H4V12A1,1,0,0,1,5,11H21a1,1,0,0,0,1-1V7.88A2.88,2.88,0,0,0,19.12,5H12.88A2.88,2.88,0,0,0,10,7.88V9H5A3,3,0,0,0,2,12V16a1,1,0,0,0,1,1H8v.1A1.9,1.9,0,0,0,9.9,19h1.2A1.9,1.9,0,0,0,13,17.1V17h6v.1A1.9,1.9,0,0,0,20.9,19h1.2A1.9,1.9,0,0,0,24,17.1V17h3v8.32a.67.67,0,0,1-.68.68H5.68A.67.67,0,0,1,5,25.32V20a1,1,0,0,0-2,0v5.32A2.68,2.68,0,0,0,5.68,28H26.32A2.68,2.68,0,0,0,29,25.32V17a1,1,0,0,0,1-1V12A3,3,0,0,0,27.05,9ZM12,7.88A.87.87,0,0,1,12.88,7h6.24a.87.87,0,0,1,.88.88V9H12ZM11,17H10V15h1Zm11,0H21V15h1Z"/></g></svg>