<svg xmlns="http://www.w3.org/2000/svg" viewBox="0 0 32 32"><g id="trowel"><path d="M25.54,2.67a3.55,3.55,0,0,0-4.38.17l-9.46,8a3.8,3.8,0,0,0-.84,4.81,1,1,0,1,0,1.71-1A1.78,1.78,0,0,1,13,12.36l9.46-8a1.57,1.57,0,0,1,2.46,1.78l-4.58,11.5a1.8,1.8,0,0,1-2,1.11,9.19,9.19,0,0,1-2.42-.94l2.87-4a1,1,0,1,0-1.62-1.17l-3.44,4.81s0,0-.07.06,0,.06,0,.08l-1.11,1.56-.81-.59a1,1,0,0,0-1.39.23L5.56,25.27A3,3,0,0,0,8,30a2.77,2.77,0,0,0,.49,0,3,3,0,0,0,1.94-1.2l4.7-6.49a1,1,0,0,0,.18-.74,1,1,0,0,0-.4-.65l-.79-.57.61-.86a11.2,11.2,0,0,0,3.14,1.25,3.72,3.72,0,0,0,.81.09,3.82,3.82,0,0,0,3.52-2.41l4.59-11.5A3.56,3.56,0,0,0,25.54,2.67ZM8.79,27.59a1.07,1.07,0,0,1-.64.4,1,1,0,0,1-.74-.18h0a1,1,0,0,1-.4-.64,1,1,0,0,1,.17-.73l4.12-5.68.82.59h0l.79.56Z"/></g></svg>