<svg xmlns="http://www.w3.org/2000/svg" viewBox="0 0 32 32"><g id="valve"><path d="M29,20a1,1,0,0,0,1-1V13a1,1,0,0,0-1-1H25a1,1,0,0,0-1,1H17V11h.67a3.15,3.15,0,0,0,2.82-1.74L21.62,7H23a1,1,0,0,0,0-2H9A1,1,0,0,0,9,7h1.38l1.13,2.26A3.15,3.15,0,0,0,14.33,11H15v3a1,1,0,0,0,1,1h8v9H8V15h3a1,1,0,0,0,0-2H8a1,1,0,0,0-1-1H3a1,1,0,0,0-1,1V26a1,1,0,0,0,1,1H7a1,1,0,0,0,1-1H24a1,1,0,0,0,1,1h4a1,1,0,0,0,1-1V23a1,1,0,0,0-2,0v2H26V14h2v5A1,1,0,0,0,29,20ZM13.3,8.36,12.62,7h6.76L18.7,8.36a1.14,1.14,0,0,1-1,.64H14.33A1.14,1.14,0,0,1,13.3,8.36ZM4,25V14H6V25Z"/></g></svg>