<svg xmlns="http://www.w3.org/2000/svg" viewBox="0 0 32 32"><g id="wheelbarrow"><path d="M26.5,19a3.52,3.52,0,0,0-1.65.43l-.58-.57L28.57,12,29,12H29a1,1,0,0,0,.05-2L14.38,9.27l1.48-.83a6.64,6.64,0,0,1,7,.38,1,1,0,0,0,1.39-.24A1,1,0,0,0,24,7.18a8.65,8.65,0,0,0-9.13-.49L10.6,9.08,9.05,9A1,1,0,1,0,9,11l17.33.87L22.48,18l-9.68-.88-1.08-4.31a1,1,0,0,0-1.94.48L10.72,17H9.66L7.24,11.35a2.23,2.23,0,0,0-2-1.35H3a1,1,0,0,0,0,2H5.19a.23.23,0,0,1,.21.14l2.68,6.25A1,1,0,0,0,9,19v3a3,3,0,0,0,3,3,3,3,0,0,0,2.36-1.14l3.39-4.23s0-.07,0-.1l4.72.43.88.89A3.49,3.49,0,1,0,26.5,19ZM12.83,22.61A1,1,0,0,1,11,22V19H12l3.51.32ZM26.5,24A1.5,1.5,0,1,1,28,22.5,1.5,1.5,0,0,1,26.5,24Z"/></g></svg>